<svg id="Layer_1" data-name="Layer 1" xmlns="http://www.w3.org/2000/svg" viewBox="0 0 820 239.51"><defs><style>.cls-1{fill:#00a99d;}</style></defs><path d="M6965.71,7079.25a19.52,19.52,0,0,0-19.52,19.52V7255a19.53,19.53,0,1,0,39.05,0V7098.77A19.52,19.52,0,0,0,6965.71,7079.25Z" transform="translate(-6790 -7079.25)"/><path d="M6809.52,7079.25a19.52,19.52,0,0,0-19.52,19.52V7255a19.53,19.53,0,1,0,39.05,0V7098.77A19.53,19.53,0,0,0,6809.52,7079.25Z" transform="translate(-6790 -7079.25)"/><circle cx="97.62" cy="97.62" r="19.52"/><circle class="cls-1" cx="253.81" cy="19.52" r="19.52"/><path d="M7043.81,7157.34a19.53,19.53,0,0,0-19.53,19.53V7255a19.53,19.53,0,1,0,39.05,0v-78.09A19.52,19.52,0,0,0,7043.81,7157.34Z" transform="translate(-6790 -7079.25)"/><path d="M7200,7157.34h-78.1a19.53,19.53,0,0,0,0,39.05H7200a19.53,19.53,0,0,0,0-39.05Z" transform="translate(-6790 -7079.25)"/><path d="M7278.1,7079.3a19.52,19.52,0,0,0-19.53,19.52V7255a19.53,19.53,0,1,0,39.05,0V7098.82A19.52,19.52,0,0,0,7278.1,7079.3Z" transform="translate(-6790 -7079.25)"/><rect x="546.67" y="78.1" width="78.1" height="117.14" rx="19.52"/><path d="M7473.33,7157.34a19.52,19.52,0,0,0-19.52,19.53V7255a19.53,19.53,0,1,0,39,0v-78.09A19.53,19.53,0,0,0,7473.33,7157.34Z" transform="translate(-6790 -7079.25)"/><path d="M7551.43,7079.25h-78.1a19.52,19.52,0,0,0,0,39h78.1a19.53,19.53,0,0,1,0,39.05,19.53,19.53,0,0,0,0,39.05,58.57,58.57,0,0,0,0-117.14Z" transform="translate(-6790 -7079.25)"/><path d="M6812.84,7285.93v24.95h-2.46v-11.67h-14.79v11.67h-2.43v-24.95h2.43V7297h14.79v-11.11Z" transform="translate(-6790 -7079.25)"/><path d="M6819.59,7316.54l.35.05.35,0a5.37,5.37,0,0,0,.76-.07,5,5,0,0,0,.58-.14,1,1,0,0,0,.36-.3,4.39,4.39,0,0,0,.5-.81c.2-.39.45-.92.75-1.62s.69-1.62,1.16-2.79l-8-18.31h2.5l6.78,16.1,6.26-16.1h2.28l-9.52,23.62a4.23,4.23,0,0,1-1.43,1.93,4.29,4.29,0,0,1-2.51.63,6.15,6.15,0,0,1-1.19-.1Z" transform="translate(-6790 -7079.25)"/><path d="M6847,7311.23a7.3,7.3,0,0,1-4.11-1.18,9.25,9.25,0,0,1-2.88-3v11.28h-2.39v-25.8h2.14v3.55a8.86,8.86,0,0,1,2.92-2.79,7.39,7.39,0,0,1,3.9-1.07,7.75,7.75,0,0,1,3.5.79,8.91,8.91,0,0,1,2.76,2.11,9.92,9.92,0,0,1,1.81,3,10.09,10.09,0,0,1,.65,3.55,11.06,11.06,0,0,1-.6,3.66,9.33,9.33,0,0,1-1.71,3,8.13,8.13,0,0,1-2.63,2.06A7.53,7.53,0,0,1,6847,7311.23Zm-.67-2.11a5.67,5.67,0,0,0,2.68-.63,6.76,6.76,0,0,0,2.05-1.67,7.43,7.43,0,0,0,1.32-2.35,8.41,8.41,0,0,0,.46-2.73,7.77,7.77,0,0,0-2-5.16,6.89,6.89,0,0,0-2.16-1.62,6.16,6.16,0,0,0-2.69-.6,5.56,5.56,0,0,0-1.9.37,8.31,8.31,0,0,0-1.86,1,6.43,6.43,0,0,0-1.5,1.44,3.82,3.82,0,0,0-.75,1.74v5.62a8.36,8.36,0,0,0,1.07,1.83,7.58,7.58,0,0,0,1.48,1.46,6.72,6.72,0,0,0,1.79,1A5.58,5.58,0,0,0,6846.29,7309.12Z" transform="translate(-6790 -7079.25)"/><path d="M6867.2,7311.23a8.8,8.8,0,0,1-6.6-2.83,9.69,9.69,0,0,1-1.92-3,10,10,0,0,1-.68-3.69,9.76,9.76,0,0,1,.68-3.63,9.35,9.35,0,0,1,1.92-3,9.22,9.22,0,0,1,2.9-2,8.93,8.93,0,0,1,10.21,2.06,9.58,9.58,0,0,1,2.52,6.57c0,.19,0,.37,0,.56a2,2,0,0,1-.05.39h-15.64a7.83,7.83,0,0,0,.68,2.72,7.73,7.73,0,0,0,1.48,2.16,6.56,6.56,0,0,0,2.07,1.43,6.26,6.26,0,0,0,2.51.51,6.86,6.86,0,0,0,1.8-.25,7,7,0,0,0,1.61-.67,5.77,5.77,0,0,0,1.32-1,4.56,4.56,0,0,0,.9-1.35l2.07.56a6.16,6.16,0,0,1-1.19,1.85,8.5,8.5,0,0,1-1.8,1.44,8.7,8.7,0,0,1-2.25.95A9.7,9.7,0,0,1,6867.2,7311.23Zm6.75-10.47a7.56,7.56,0,0,0-.68-2.69,7.38,7.38,0,0,0-1.48-2.09,6.57,6.57,0,0,0-4.62-1.86,6.52,6.52,0,0,0-2.53.49,6.59,6.59,0,0,0-2.09,1.37,6.69,6.69,0,0,0-1.44,2.11,7.81,7.81,0,0,0-.65,2.67Z" transform="translate(-6790 -7079.25)"/><path d="M6889,7294.68a7.48,7.48,0,0,0-4.22,1.34,6.67,6.67,0,0,0-2.53,3.48v11.38h-2.39v-18.31h2.25V7297a9.6,9.6,0,0,1,2.49-3.21,5.11,5.11,0,0,1,3.34-1.28h.6a2.86,2.86,0,0,1,.46,0Z" transform="translate(-6790 -7079.25)"/><path d="M6901,7310.88V7286h2.43v24.91Z" transform="translate(-6790 -7079.25)"/><path d="M6924.52,7310.88h-2.39v-10.23a9.08,9.08,0,0,0-.95-4.74,3.27,3.27,0,0,0-3-1.48,6,6,0,0,0-2.11.39,7.48,7.48,0,0,0-2,1.09,7.93,7.93,0,0,0-1.6,1.67,7.4,7.4,0,0,0-1,2.09v11.21h-2.39v-18.31h2.18v4.15a8.27,8.27,0,0,1,1.38-1.81,9.1,9.1,0,0,1,1.85-1.42,9,9,0,0,1,2.16-.92,8.86,8.86,0,0,1,2.37-.31,5.36,5.36,0,0,1,2.59.56,4.44,4.44,0,0,1,1.67,1.58,7.38,7.38,0,0,1,.91,2.49,17.41,17.41,0,0,1,.28,3.27Z" transform="translate(-6790 -7079.25)"/><path d="M6938.19,7310c-.14.07-.35.17-.62.28a8,8,0,0,1-.93.35,9.66,9.66,0,0,1-1.19.32,7.17,7.17,0,0,1-1.41.14,5.12,5.12,0,0,1-1.47-.21,3.45,3.45,0,0,1-1.23-.65,3.16,3.16,0,0,1-.85-1.11,3.56,3.56,0,0,1-.31-1.54v-13.11h-2.53v-1.9h2.53v-6.18h2.39v6.18h4.21v1.9h-4.21v12.44a1.89,1.89,0,0,0,.7,1.49,2.41,2.41,0,0,0,1.51.48,4.33,4.33,0,0,0,1.79-.34,8.15,8.15,0,0,0,1-.47Z" transform="translate(-6790 -7079.25)"/><path d="M6949,7311.23a8.8,8.8,0,0,1-6.6-2.83,9.7,9.7,0,0,1-2.6-6.73,9.57,9.57,0,0,1,.68-3.63,9.35,9.35,0,0,1,1.92-3,9.22,9.22,0,0,1,2.9-2,9.35,9.35,0,0,1,7.34,0,8.73,8.73,0,0,1,2.86,2.06,9.57,9.57,0,0,1,1.87,3,9.78,9.78,0,0,1,.66,3.59c0,.19,0,.37,0,.56a1.76,1.76,0,0,1-.06.39h-15.63a7.62,7.62,0,0,0,.68,2.72,7.73,7.73,0,0,0,1.48,2.16,6.45,6.45,0,0,0,2.07,1.43,6.22,6.22,0,0,0,2.51.51,6.86,6.86,0,0,0,1.8-.25,7,7,0,0,0,1.61-.67,5.77,5.77,0,0,0,1.32-1,4.76,4.76,0,0,0,.9-1.35l2.07.56a6,6,0,0,1-1.2,1.85,8.2,8.2,0,0,1-1.79,1.44,8.7,8.7,0,0,1-2.25.95A9.7,9.7,0,0,1,6949,7311.23Zm6.75-10.47a7.36,7.36,0,0,0-.69-2.69,7.16,7.16,0,0,0-1.47-2.09,6.7,6.7,0,0,0-2.09-1.37,6.78,6.78,0,0,0-5.06,0,6.48,6.48,0,0,0-2.09,1.37,6.69,6.69,0,0,0-1.44,2.11,7.81,7.81,0,0,0-.65,2.67Z" transform="translate(-6790 -7079.25)"/><path d="M6961.73,7285.23h2.39v21.5a2.17,2.17,0,0,0,.57,1.6,2.08,2.08,0,0,0,1.58.58,4.74,4.74,0,0,0,.91-.1,6.64,6.64,0,0,0,1-.28l.43,1.93a7.94,7.94,0,0,1-1.64.46,10.14,10.14,0,0,1-1.67.17,3.55,3.55,0,0,1-2.6-.93,3.51,3.51,0,0,1-1-2.62Z" transform="translate(-6790 -7079.25)"/><path d="M6971,7285.23h2.39v21.5a2.21,2.21,0,0,0,.56,1.6,2.09,2.09,0,0,0,1.58.58,4.75,4.75,0,0,0,.92-.1,6.64,6.64,0,0,0,1-.28l.42,1.93a7.83,7.83,0,0,1-1.63.46,10.24,10.24,0,0,1-1.67.17,3.55,3.55,0,0,1-2.6-.93,3.51,3.51,0,0,1-.95-2.62Z" transform="translate(-6790 -7079.25)"/><path d="M6980.18,7288.74v-3.51h2.39v3.51Zm0,22.14v-18.31h2.39v18.31Z" transform="translate(-6790 -7079.25)"/><path d="M6995.12,7311.13a7.62,7.62,0,0,1-3.46-.79,9,9,0,0,1-2.71-2.09,10,10,0,0,1-2.41-6.47,10.83,10.83,0,0,1,.62-3.64,9.39,9.39,0,0,1,1.74-3,8.43,8.43,0,0,1,2.69-2.07,7.61,7.61,0,0,1,3.46-.77,7,7,0,0,1,4.07,1.17,11.45,11.45,0,0,1,3,3v-3.83h2.14V7311a7.51,7.51,0,0,1-.72,3.36,7.36,7.36,0,0,1-1.93,2.44,8.23,8.23,0,0,1-2.87,1.48,12.4,12.4,0,0,1-3.48.49,10,10,0,0,1-5.06-1.13,9,9,0,0,1-3.13-3l1.48-1.16a6.63,6.63,0,0,0,2.88,2.58,9.07,9.07,0,0,0,3.83.83,8.6,8.6,0,0,0,2.55-.37,6.13,6.13,0,0,0,2.11-1.09,5.08,5.08,0,0,0,1.42-1.83,5.91,5.91,0,0,0,.53-2.58v-3.62a8,8,0,0,1-2.9,2.78A7.67,7.67,0,0,1,6995.12,7311.13Zm.67-2a5.74,5.74,0,0,0,2.07-.38,7.06,7.06,0,0,0,1.84-1,6.61,6.61,0,0,0,1.39-1.46,4.48,4.48,0,0,0,.74-1.65v-5.66a7.13,7.13,0,0,0-1.07-1.82,7.44,7.44,0,0,0-3.34-2.39,5.6,5.6,0,0,0-1.95-.36,5.66,5.66,0,0,0-2.74.65,6.75,6.75,0,0,0-2,1.71,7.54,7.54,0,0,0-1.28,2.39,8.39,8.39,0,0,0-.44,2.7,7.54,7.54,0,0,0,2,5.15,6.52,6.52,0,0,0,2.16,1.58A6.22,6.22,0,0,0,6995.79,7309.12Z" transform="translate(-6790 -7079.25)"/><path d="M7017.36,7311.23a8.8,8.8,0,0,1-6.6-2.83,9.7,9.7,0,0,1-2.6-6.73,9.57,9.57,0,0,1,.68-3.63,9.26,9.26,0,0,1,4.81-5,9.38,9.38,0,0,1,7.35,0,8.73,8.73,0,0,1,2.86,2.06,9.57,9.57,0,0,1,1.87,3,9.78,9.78,0,0,1,.66,3.59c0,.19,0,.37,0,.56a1.76,1.76,0,0,1-.06.39h-15.63a7.62,7.62,0,0,0,.68,2.72,7.73,7.73,0,0,0,1.48,2.16,6.35,6.35,0,0,0,2.07,1.43,6.22,6.22,0,0,0,2.51.51,6.86,6.86,0,0,0,1.8-.25,7,7,0,0,0,1.61-.67,5.77,5.77,0,0,0,1.32-1,4.76,4.76,0,0,0,.9-1.35l2.07.56a6,6,0,0,1-1.2,1.85,8.2,8.2,0,0,1-1.79,1.44,8.7,8.7,0,0,1-2.25.95A9.7,9.7,0,0,1,7017.36,7311.23Zm6.75-10.47a7.36,7.36,0,0,0-.69-2.69A7.16,7.16,0,0,0,7022,7296a6.7,6.7,0,0,0-2.09-1.37,6.78,6.78,0,0,0-5.06,0,6.48,6.48,0,0,0-2.09,1.37,6.69,6.69,0,0,0-1.44,2.11,7.81,7.81,0,0,0-.65,2.67Z" transform="translate(-6790 -7079.25)"/><path d="M7045.37,7310.88H7043v-10.23a9.08,9.08,0,0,0-.95-4.74,3.26,3.26,0,0,0-2.95-1.48,6,6,0,0,0-2.11.39,7.48,7.48,0,0,0-2,1.09,7.93,7.93,0,0,0-1.6,1.67,7.4,7.4,0,0,0-1,2.09v11.21H7030v-18.31h2.18v4.15a8.27,8.27,0,0,1,1.38-1.81,9.1,9.1,0,0,1,1.85-1.42,9,9,0,0,1,2.16-.92,8.86,8.86,0,0,1,2.37-.31,5.36,5.36,0,0,1,2.59.56,4.44,4.44,0,0,1,1.67,1.58,7.38,7.38,0,0,1,.91,2.49,17.41,17.41,0,0,1,.28,3.27Z" transform="translate(-6790 -7079.25)"/><path d="M7049.13,7301.67a9.94,9.94,0,0,1,.67-3.65,9.07,9.07,0,0,1,1.88-3,8.94,8.94,0,0,1,2.9-2,9.18,9.18,0,0,1,3.72-.73,8.53,8.53,0,0,1,4.53,1.17,7.58,7.58,0,0,1,2.92,3.18l-2.32.74a5.5,5.5,0,0,0-2.14-2.19,6,6,0,0,0-3.06-.8,6.08,6.08,0,0,0-2.62.57,6.65,6.65,0,0,0-2.11,1.53,7.1,7.1,0,0,0-1.4,2.3,8.43,8.43,0,0,0,0,5.83,7.45,7.45,0,0,0,1.44,2.37,6.8,6.8,0,0,0,2.12,1.58,5.88,5.88,0,0,0,2.59.58,6.52,6.52,0,0,0,1.74-.24,6.66,6.66,0,0,0,1.59-.69,5.35,5.35,0,0,0,1.27-1,3.23,3.23,0,0,0,.74-1.19l2.32.7a6,6,0,0,1-1.13,1.81,7.68,7.68,0,0,1-1.74,1.44,8.29,8.29,0,0,1-2.21.95,9.55,9.55,0,0,1-2.51.33,8.85,8.85,0,0,1-6.61-2.83,9.69,9.69,0,0,1-1.92-3A10,10,0,0,1,7049.13,7301.67Z" transform="translate(-6790 -7079.25)"/><path d="M7077.66,7311.23a8.8,8.8,0,0,1-6.6-2.83,9.69,9.69,0,0,1-1.92-3,10,10,0,0,1-.68-3.69,9.76,9.76,0,0,1,.68-3.63,9.35,9.35,0,0,1,1.92-3,9.22,9.22,0,0,1,2.9-2,8.93,8.93,0,0,1,10.21,2.06,9.65,9.65,0,0,1,2.53,6.57c0,.19,0,.37,0,.56a2,2,0,0,1-.05.39H7071a7.83,7.83,0,0,0,.68,2.72,7.73,7.73,0,0,0,1.48,2.16,6.56,6.56,0,0,0,2.07,1.43,6.26,6.26,0,0,0,2.51.51,6.86,6.86,0,0,0,1.8-.25,7,7,0,0,0,1.61-.67,5.56,5.56,0,0,0,1.32-1,4.56,4.56,0,0,0,.9-1.35l2.07.56a6.16,6.16,0,0,1-1.19,1.85,8.5,8.5,0,0,1-1.8,1.44,8.7,8.7,0,0,1-2.25.95A9.7,9.7,0,0,1,7077.66,7311.23Zm6.75-10.47a7.56,7.56,0,0,0-.68-2.69,7.38,7.38,0,0,0-1.48-2.09,6.64,6.64,0,0,0-9.24,0,6.69,6.69,0,0,0-1.44,2.11,7.81,7.81,0,0,0-.65,2.67Z" transform="translate(-6790 -7079.25)"/><path d="M7122,7310.88v-20.49l-9.1,15.85h-1.44l-9.14-15.85v20.49h-2.43v-24.95h2.5l9.77,17.08,9.77-17.08h2.49v24.95Z" transform="translate(-6790 -7079.25)"/><path d="M7138.14,7311.23a8.8,8.8,0,0,1-6.6-2.83,9.7,9.7,0,0,1-2.6-6.73,9.57,9.57,0,0,1,.68-3.63,9.35,9.35,0,0,1,1.92-3,9.22,9.22,0,0,1,2.9-2,9.35,9.35,0,0,1,7.34,0,8.73,8.73,0,0,1,2.86,2.06,9.57,9.57,0,0,1,1.87,3,9.78,9.78,0,0,1,.66,3.59c0,.19,0,.37,0,.56a1.31,1.31,0,0,1-.06.39h-15.63a7.62,7.62,0,0,0,.68,2.72,7.73,7.73,0,0,0,1.48,2.16,6.45,6.45,0,0,0,2.07,1.43,6.26,6.26,0,0,0,2.51.51,6.86,6.86,0,0,0,1.8-.25,7,7,0,0,0,1.61-.67,5.77,5.77,0,0,0,1.32-1,4.76,4.76,0,0,0,.9-1.35l2.07.56a6,6,0,0,1-1.2,1.85,8.2,8.2,0,0,1-1.79,1.44,8.7,8.7,0,0,1-2.25.95A9.7,9.7,0,0,1,7138.14,7311.23Zm6.75-10.47a7.56,7.56,0,0,0-.68-2.69,7.38,7.38,0,0,0-1.48-2.09,6.7,6.7,0,0,0-2.09-1.37,6.78,6.78,0,0,0-5.06,0,6.48,6.48,0,0,0-2.09,1.37,6.69,6.69,0,0,0-1.44,2.11,7.81,7.81,0,0,0-.65,2.67Z" transform="translate(-6790 -7079.25)"/><path d="M7158.35,7311.23a7.87,7.87,0,0,1-3.52-.79,9.29,9.29,0,0,1-2.79-2.09,9.75,9.75,0,0,1-1.83-3,10,10,0,0,1-.65-3.57,10.46,10.46,0,0,1,.64-3.67,9.66,9.66,0,0,1,1.74-3,8.13,8.13,0,0,1,2.63-2.06,7.53,7.53,0,0,1,3.36-.75,7.17,7.17,0,0,1,4.11,1.21,9.69,9.69,0,0,1,2.85,2.93v-11.17h2.38v22.56c0,.65.29,1,.85,1v2.11a6,6,0,0,1-.95.11,2,2,0,0,1-1.44-.51,1.58,1.58,0,0,1-.56-1.22v-1.93a8.28,8.28,0,0,1-3,2.85A7.7,7.7,0,0,1,7158.35,7311.23Zm.49-2.11a5.67,5.67,0,0,0,1.92-.35,7.46,7.46,0,0,0,1.86-1,7,7,0,0,0,1.49-1.44,3.93,3.93,0,0,0,.78-1.78v-5.66a6.14,6.14,0,0,0-1-1.77,8.58,8.58,0,0,0-1.55-1.46,7.14,7.14,0,0,0-1.82-1,5.52,5.52,0,0,0-1.92-.36,5.77,5.77,0,0,0-2.69.64,6.41,6.41,0,0,0-2.05,1.67,7.62,7.62,0,0,0-1.32,2.37,8,8,0,0,0-.48,2.74,7.63,7.63,0,0,0,.53,2.81,7.53,7.53,0,0,0,1.44,2.34,7.15,7.15,0,0,0,2.16,1.6A6.26,6.26,0,0,0,7158.84,7309.12Z" transform="translate(-6790 -7079.25)"/><path d="M7172.65,7288.74v-3.51H7175v3.51Zm0,22.14v-18.31H7175v18.31Z" transform="translate(-6790 -7079.25)"/><path d="M7185,7311.23a7,7,0,0,1-2.56-.44,5.78,5.78,0,0,1-2-1.21,5.4,5.4,0,0,1-1.28-1.79,5.13,5.13,0,0,1-.46-2.15,4.8,4.8,0,0,1,.56-2.3,5.32,5.32,0,0,1,1.58-1.77,7.81,7.81,0,0,1,2.45-1.14,11.42,11.42,0,0,1,3.14-.41,16,16,0,0,1,2.81.25,12.44,12.44,0,0,1,2.57.7v-1.65a5.26,5.26,0,0,0-1.39-3.85,5,5,0,0,0-3.74-1.42,8.24,8.24,0,0,0-2.94.56,14.13,14.13,0,0,0-3,1.62l-.84-1.58a15.86,15.86,0,0,1,3.48-1.8,10.64,10.64,0,0,1,3.51-.59,7.24,7.24,0,0,1,5.31,1.93,7.16,7.16,0,0,1,2,5.34v8.26c0,.65.28,1,.84,1v2.11l-.53.05a3.25,3.25,0,0,1-.42,0,2.13,2.13,0,0,1-1.28-.42,1.64,1.64,0,0,1-.65-1.27l-.07-1.44a8,8,0,0,1-3.15,2.52A9.46,9.46,0,0,1,7185,7311.23Zm.6-1.82a7.71,7.71,0,0,0,3.14-.69,6.11,6.11,0,0,0,2.48-1.88,3.44,3.44,0,0,0,.42-.69,1.54,1.54,0,0,0,.18-.68v-3a14.65,14.65,0,0,0-2.5-.7,13.9,13.9,0,0,0-2.53-.25,7.52,7.52,0,0,0-4.16,1,3.24,3.24,0,0,0-1.6,2.86,3.82,3.82,0,0,0,.28,1.45,3.77,3.77,0,0,0,.86,1.26,4.49,4.49,0,0,0,1.43.91A5.07,5.07,0,0,0,7185.62,7309.41Z" transform="translate(-6790 -7079.25)"/><path d="M7211.45,7290.5v20.38H7209v-24.95h1.9l16.52,20.77V7286h2.42v24.91h-2.11Z" transform="translate(-6790 -7079.25)"/><path d="M7243.6,7311.23a8.85,8.85,0,0,1-6.61-2.83,9.66,9.66,0,0,1-1.91-3,9.77,9.77,0,0,1-.69-3.69,9.57,9.57,0,0,1,.69-3.63,9.17,9.17,0,0,1,4.81-5,9.38,9.38,0,0,1,7.35,0,8.73,8.73,0,0,1,2.86,2.06,9.37,9.37,0,0,1,1.86,3,9.58,9.58,0,0,1,.67,3.59c0,.19,0,.37,0,.56a2.7,2.7,0,0,1-.06.39h-15.64a7.63,7.63,0,0,0,.69,2.72,7.92,7.92,0,0,0,1.47,2.16,6.49,6.49,0,0,0,2.08,1.43,6.22,6.22,0,0,0,2.51.51,6.73,6.73,0,0,0,1.79-.25,6.9,6.9,0,0,0,1.62-.67,5.77,5.77,0,0,0,1.32-1,4.72,4.72,0,0,0,.89-1.35l2.08.56a6,6,0,0,1-1.2,1.85,8.2,8.2,0,0,1-1.79,1.44,8.7,8.7,0,0,1-2.25.95A9.7,9.7,0,0,1,7243.6,7311.23Zm6.75-10.47a7.41,7.41,0,0,0-2.16-4.78,6.7,6.7,0,0,0-2.09-1.37,6.78,6.78,0,0,0-5.06,0A6.48,6.48,0,0,0,7239,7296a6.89,6.89,0,0,0-1.45,2.11,8.05,8.05,0,0,0-.65,2.67Z" transform="translate(-6790 -7079.25)"/><path d="M7264.9,7310c-.14.07-.35.17-.62.28a8.75,8.75,0,0,1-.93.35,9.66,9.66,0,0,1-1.19.32,7.17,7.17,0,0,1-1.41.14,5.07,5.07,0,0,1-1.47-.21,3.59,3.59,0,0,1-1.24-.65,3.14,3.14,0,0,1-.84-1.11,3.56,3.56,0,0,1-.31-1.54v-13.11h-2.53v-1.9h2.53v-6.18h2.39v6.18h4.21v1.9h-4.21v12.44a1.89,1.89,0,0,0,.7,1.49,2.41,2.41,0,0,0,1.51.48,4.33,4.33,0,0,0,1.79-.34,7.74,7.74,0,0,0,1-.47Z" transform="translate(-6790 -7079.25)"/><path d="M7290.87,7292.57h2.32l-7.84,18.31h-2l-3.9-9.35-3.9,9.35h-2l-7.83-18.31H7268l6.68,15.85,3.48-8.36-3.13-7.45h2l2.39,6,2.35-6h2l-3.09,7.45,3.48,8.36Z" transform="translate(-6790 -7079.25)"/><path d="M7303.52,7311.23a8.82,8.82,0,0,1-3.67-.75,9,9,0,0,1-2.89-2.06,9.56,9.56,0,0,1-1.88-3,10.06,10.06,0,0,1-.66-3.62,9.7,9.7,0,0,1,2.58-6.68,9.21,9.21,0,0,1,2.88-2.07,9,9,0,0,1,7.28,0,9.21,9.21,0,0,1,2.88,2.07,9.91,9.91,0,0,1,1.89,10.3,9.58,9.58,0,0,1-1.89,3,9,9,0,0,1-2.88,2.06A8.82,8.82,0,0,1,7303.52,7311.23Zm-6.64-9.42a7.87,7.87,0,0,0,.51,2.87,7.45,7.45,0,0,0,1.4,2.32,6.34,6.34,0,0,0,2.11,1.56,6,6,0,0,0,2.58.56,5.88,5.88,0,0,0,2.59-.58,6.8,6.8,0,0,0,2.12-1.58,7.49,7.49,0,0,0,1.44-2.33,8.06,8.06,0,0,0,0-5.75,7.36,7.36,0,0,0-1.44-2.35,7,7,0,0,0-2.11-1.59,5.86,5.86,0,0,0-2.56-.58,5.94,5.94,0,0,0-2.58.58,6.49,6.49,0,0,0-2.11,1.6,7.78,7.78,0,0,0-1.43,2.38A7.89,7.89,0,0,0,7296.88,7301.81Z" transform="translate(-6790 -7079.25)"/><path d="M7325.66,7294.68a7.48,7.48,0,0,0-4.22,1.34,6.67,6.67,0,0,0-2.53,3.48v11.38h-2.39v-18.31h2.25V7297a9.6,9.6,0,0,1,2.49-3.21,5.11,5.11,0,0,1,3.34-1.28h.6a2.86,2.86,0,0,1,.46,0Z" transform="translate(-6790 -7079.25)"/><path d="M7341.93,7310.88l-6.75-9.38-3.94,3.65v5.73h-2.39v-25.65h2.39v17.43l10.3-10.05h2.71l-7.49,7.48,7.77,10.79Z" transform="translate(-6790 -7079.25)"/><path d="M7357,7310.88v-24.95h10.33a6.43,6.43,0,0,1,3,.69,7.76,7.76,0,0,1,2.34,1.79,8.23,8.23,0,0,1,1.52,2.51,7.72,7.72,0,0,1,.55,2.85,8.75,8.75,0,0,1-.51,3,7.85,7.85,0,0,1-1.46,2.51,7.41,7.41,0,0,1-2.27,1.76,6.41,6.41,0,0,1-2.93.66h-8.12v9.21Zm2.42-11.38h8a4.08,4.08,0,0,0,2-.48,4.92,4.92,0,0,0,1.53-1.26,6,6,0,0,0,1-1.83,6.79,6.79,0,0,0,.35-2.16,6,6,0,0,0-.41-2.2,6.17,6.17,0,0,0-1.08-1.81,5.06,5.06,0,0,0-1.62-1.21,4.55,4.55,0,0,0-1.95-.44h-7.77Z" transform="translate(-6790 -7079.25)"/><path d="M7378.3,7285.23h2.39v21.5a2.21,2.21,0,0,0,.56,1.6,2.08,2.08,0,0,0,1.58.58,4.83,4.83,0,0,0,.92-.1,7,7,0,0,0,1-.28l.42,1.93a7.83,7.83,0,0,1-1.63.46,10.24,10.24,0,0,1-1.67.17,3.55,3.55,0,0,1-2.6-.93,3.47,3.47,0,0,1-.95-2.62Z" transform="translate(-6790 -7079.25)"/><path d="M7392.32,7311.23a7.08,7.08,0,0,1-2.57-.44,5.83,5.83,0,0,1-2-1.21,5.4,5.4,0,0,1-1.28-1.79,5.13,5.13,0,0,1-.46-2.15,4.8,4.8,0,0,1,.56-2.3,5.32,5.32,0,0,1,1.58-1.77,7.81,7.81,0,0,1,2.45-1.14,11.37,11.37,0,0,1,3.14-.41,16.11,16.11,0,0,1,2.81.25,12.44,12.44,0,0,1,2.57.7v-1.65a5.3,5.3,0,0,0-1.39-3.85,5,5,0,0,0-3.74-1.42,8.2,8.2,0,0,0-2.94.56,14.13,14.13,0,0,0-3,1.62l-.84-1.58a15.64,15.64,0,0,1,3.48-1.8,10.6,10.6,0,0,1,3.51-.59,7.24,7.24,0,0,1,5.31,1.93,7.16,7.16,0,0,1,2,5.34v8.26c0,.65.28,1,.84,1v2.11l-.53.05a3.25,3.25,0,0,1-.42,0,2.11,2.11,0,0,1-1.28-.42,1.64,1.64,0,0,1-.65-1.27l-.07-1.44a8,8,0,0,1-3.15,2.52A9.49,9.49,0,0,1,7392.32,7311.23Zm.6-1.82a7.71,7.71,0,0,0,3.14-.69,6.18,6.18,0,0,0,2.48-1.88,4,4,0,0,0,.42-.69,1.54,1.54,0,0,0,.18-.68v-3a14.65,14.65,0,0,0-2.5-.7,14,14,0,0,0-2.53-.25,7.52,7.52,0,0,0-4.16,1,3.24,3.24,0,0,0-1.6,2.86,3.82,3.82,0,0,0,.28,1.45,3.63,3.63,0,0,0,.86,1.26,4.56,4.56,0,0,0,1.42.91A5.12,5.12,0,0,0,7392.92,7309.41Z" transform="translate(-6790 -7079.25)"/><path d="M7415.34,7310c-.14.07-.35.17-.62.28a8.75,8.75,0,0,1-.93.35,9.66,9.66,0,0,1-1.19.32,7.17,7.17,0,0,1-1.41.14,5.14,5.14,0,0,1-1.48-.21,3.63,3.63,0,0,1-1.23-.65,3.14,3.14,0,0,1-.84-1.11,3.56,3.56,0,0,1-.31-1.54v-13.11h-2.54v-1.9h2.54v-6.18h2.38v6.18h4.22v1.9h-4.22v12.44a1.92,1.92,0,0,0,.71,1.49,2.41,2.41,0,0,0,1.51.48,4.33,4.33,0,0,0,1.79-.34,7.74,7.74,0,0,0,1-.47Z" transform="translate(-6790 -7079.25)"/><path d="M7419.1,7310.88v-14.27h-2.53v-1.89h2.53v-2.64a8.63,8.63,0,0,1,1.44-5.29,4.68,4.68,0,0,1,4-1.91,7,7,0,0,1,2.07.31,5.88,5.88,0,0,1,1.76.85l-.74,1.72a3.52,3.52,0,0,0-1.21-.6,5.09,5.09,0,0,0-1.42-.21,3,3,0,0,0-2.59,1.3,6.67,6.67,0,0,0-.89,3.76v2.71h5.06v1.89h-5.06v14.27Z" transform="translate(-6790 -7079.25)"/><path d="M7437.9,7311.23a8.82,8.82,0,0,1-3.67-.75,9,9,0,0,1-2.89-2.06,9.56,9.56,0,0,1-1.88-3,10.06,10.06,0,0,1-.66-3.62,9.7,9.7,0,0,1,2.58-6.68,9.21,9.21,0,0,1,2.88-2.07,9,9,0,0,1,7.28,0,9.21,9.21,0,0,1,2.88,2.07,9.91,9.91,0,0,1,1.89,10.3,9.58,9.58,0,0,1-1.89,3,9,9,0,0,1-2.88,2.06A8.82,8.82,0,0,1,7437.9,7311.23Zm-6.64-9.42a7.87,7.87,0,0,0,.51,2.87,7.45,7.45,0,0,0,1.4,2.32,6.34,6.34,0,0,0,2.11,1.56,6,6,0,0,0,2.58.56,5.88,5.88,0,0,0,2.59-.58,6.8,6.8,0,0,0,2.12-1.58,7.49,7.49,0,0,0,1.44-2.33,8.06,8.06,0,0,0,0-5.75,7.36,7.36,0,0,0-1.44-2.35,7,7,0,0,0-2.11-1.59,5.86,5.86,0,0,0-2.56-.58,5.94,5.94,0,0,0-2.58.58,6.49,6.49,0,0,0-2.11,1.6,7.78,7.78,0,0,0-1.43,2.38A7.89,7.89,0,0,0,7431.26,7301.81Z" transform="translate(-6790 -7079.25)"/><path d="M7460,7294.68a7.48,7.48,0,0,0-4.22,1.34,6.67,6.67,0,0,0-2.53,3.48v11.38h-2.39v-18.31h2.25V7297a9.6,9.6,0,0,1,2.49-3.21,5.11,5.11,0,0,1,3.34-1.28h.6a2.86,2.86,0,0,1,.46,0Z" transform="translate(-6790 -7079.25)"/><path d="M7490.47,7310.88h-2.39v-10.23a8.62,8.62,0,0,0-1-4.7,3.4,3.4,0,0,0-3-1.52,5.12,5.12,0,0,0-2,.39,6.17,6.17,0,0,0-1.72,1.09,7.58,7.58,0,0,0-1.39,1.67,7.83,7.83,0,0,0-.91,2.13v11.17h-2.39v-10.23a8.84,8.84,0,0,0-1-4.74,3.41,3.41,0,0,0-3-1.48,5.41,5.41,0,0,0-3.69,1.45,8.07,8.07,0,0,0-2.32,3.79v11.21h-2.38v-18.31h2.17v4.15a8.68,8.68,0,0,1,3-3.29,7.31,7.31,0,0,1,4-1.17,5.24,5.24,0,0,1,3.72,1.3,5.44,5.44,0,0,1,1.69,3.4q2.57-4.7,7.1-4.7a5.43,5.43,0,0,1,2.58.56,4.41,4.41,0,0,1,1.72,1.6,7.35,7.35,0,0,1,.95,2.49,16.19,16.19,0,0,1,.3,3.25Z" transform="translate(-6790 -7079.25)"/></svg>