<svg id="Layer_1" data-name="Layer 1" xmlns="http://www.w3.org/2000/svg" viewBox="0 0 386.72 120.86"><defs><style>.cls-1{fill:#00a99d;}</style></defs><polygon points="78.77 35.46 78.77 108.83 57.93 120.86 57.93 50.59 20.17 72.39 20.17 108.83 1.34 119.7 0 117.38 17.49 107.28 17.49 0 20.17 0 20.17 69.29 78.77 35.46"/><path class="cls-1" d="M7064.07,7172.36v-33.29h20.84v21.25Z" transform="translate(-7006.14 -7139.07)"/><path d="M7158.49,7174.6V7247h-3.57v-35.4h-48.16V7247h-3.46V7174.6h3.46v33.77h48.16V7174.6Z" transform="translate(-7006.14 -7139.07)"/><path d="M7178.39,7247V7174.7h3.47V7247Z" transform="translate(-7006.14 -7139.07)"/><path d="M7199,7212.5v-3.36h29.18v3.36Z" transform="translate(-7006.14 -7139.07)"/><path d="M7245.32,7247V7174.7h3.47V7247Z" transform="translate(-7006.14 -7139.07)"/><path class="cls-1" d="M7297.76,7247.55a29.64,29.64,0,0,1-13.72-3.16,35.73,35.73,0,0,1-10.66-8.27,37,37,0,0,1-6.94-11.73,38.92,38.92,0,0,1-2.45-13.57,37.8,37.8,0,0,1,2.6-13.88,38.84,38.84,0,0,1,7.15-11.73,34.28,34.28,0,0,1,10.71-8.11,30.15,30.15,0,0,1,13.42-3,29.39,29.39,0,0,1,13.67,3.21,35,35,0,0,1,10.66,8.42,38.85,38.85,0,0,1,6.89,11.79,38.31,38.31,0,0,1-7.3,39,34.55,34.55,0,0,1-10.71,8.06A29.94,29.94,0,0,1,7297.76,7247.55Zm-30.3-36.73a35.56,35.56,0,0,0,2.25,12.55A34.25,34.25,0,0,0,7276,7234a30.48,30.48,0,0,0,9.59,7.4,27,27,0,0,0,12.19,2.75,26.33,26.33,0,0,0,12.4-2.9,31.49,31.49,0,0,0,9.54-7.61,34.67,34.67,0,0,0,6.17-10.71,35,35,0,0,0-.1-24.69,34.7,34.7,0,0,0-6.37-10.66,31.33,31.33,0,0,0-9.6-7.4,27.83,27.83,0,0,0-24.43.15,31.61,31.61,0,0,0-9.54,7.6,35.92,35.92,0,0,0-8.37,22.86Z" transform="translate(-7006.14 -7139.07)"/><path d="M7392.86,7177.86h-27.14V7247h-3.57v-69.18H7335v-3.26h57.85Z" transform="translate(-7006.14 -7139.07)"/></svg>